<svg width="33" height="30" viewBox="0 0 33 30" fill="none" xmlns="http://www.w3.org/2000/svg">
<path fill-rule="evenodd" clip-rule="evenodd" d="M5.44444 8C5.73775 8 5.99236 8.19084 6.07941 8.46336L6.10204 8.55707L6.74933 12.4444H19.6667C20.0412 12.4444 20.3355 12.7506 20.3334 13.1136L20.3266 13.2054L19.4377 19.4276L19.4067 19.5545C18.934 20.8988 17.6626 21.7875 16.284 21.783L16.1111 21.7778L9.92664 21.7767C8.50396 21.8574 7.19462 21.0257 6.65651 19.7201L6.59331 19.5545L6.56463 19.4429L5.55822 13.4044L5.54128 13.3706C5.51879 13.3174 5.503 13.2607 5.49497 13.2016L5.48889 13.1111C5.48889 13.0804 5.49096 13.0502 5.49497 13.0206L4.87911 9.33333H3.66667C3.32916 9.33333 3.05023 9.08253 3.00609 8.75713L3 8.66667C3 8.32916 3.2508 8.05023 3.5762 8.00609L3.66667 8H5.44444ZM18.8978 13.7778H6.97156L7.86756 19.1547L7.90859 19.2573C8.222 19.9669 8.92151 20.432 9.72655 20.4474L9.88889 20.4444L16.1489 20.4455C16.9857 20.493 17.7572 20.0142 18.0914 19.2573L18.128 19.1627L18.8978 13.7778ZM6.55556 25.0556C6.55556 23.7055 7.64997 22.6111 9 22.6111C10.35 22.6111 11.4444 23.7055 11.4444 25.0556C11.4444 26.4056 10.35 27.5 9 27.5C7.64997 27.5 6.55556 26.4056 6.55556 25.0556ZM10.1111 25.0556C10.1111 24.4419 9.61365 23.9444 9 23.9444C8.38635 23.9444 7.88889 24.4419 7.88889 25.0556C7.88889 25.6692 8.38635 26.1667 9 26.1667C9.61365 26.1667 10.1111 25.6692 10.1111 25.0556ZM13.6667 25.0556C13.6667 23.7055 14.7611 22.6111 16.1111 22.6111C17.4611 22.6111 18.5556 23.7055 18.5556 25.0556C18.5556 26.4056 17.4611 27.5 16.1111 27.5C14.7611 27.5 13.6667 26.4056 13.6667 25.0556ZM17.2222 25.0556C17.2222 24.4419 16.7248 23.9444 16.1111 23.9444C15.4975 23.9444 15 24.4419 15 25.0556C15 25.6692 15.4975 26.1667 16.1111 26.1667C16.7248 26.1667 17.2222 25.6692 17.2222 25.0556Z" fill="#212121"/>
<path fill-rule="evenodd" clip-rule="evenodd" d="M24 18C28.9706 18 33 13.9706 33 9C33 4.02944 28.9706 0 24 0C19.0294 0 15 4.02944 15 9C15 13.9706 19.0294 18 24 18Z" fill="#0D6EFD"/>
<path d="M26.4165 13H21.4263V11.9502L23.2183 10.1387C23.7489 9.59505 24.0956 9.21908 24.2583 9.01074C24.4211 8.79915 24.5383 8.60384 24.6099 8.4248C24.6815 8.24577 24.7173 8.06022 24.7173 7.86816C24.7173 7.58171 24.6376 7.36849 24.4781 7.22852C24.3218 7.08854 24.1118 7.01855 23.8482 7.01855C23.5715 7.01855 23.3029 7.08203 23.0425 7.20898C22.7821 7.33594 22.5103 7.5166 22.2271 7.75098L21.4068 6.7793C21.7583 6.47982 22.0497 6.26823 22.2808 6.14453C22.5119 6.02083 22.7642 5.92643 23.0376 5.86133C23.3111 5.79297 23.6171 5.75879 23.9556 5.75879C24.4016 5.75879 24.7954 5.84017 25.1372 6.00293C25.479 6.16569 25.7443 6.39355 25.9331 6.68652C26.1219 6.97949 26.2163 7.31478 26.2163 7.69238C26.2163 8.02116 26.1577 8.3304 26.0406 8.62012C25.9266 8.90658 25.7476 9.20117 25.5034 9.50391C25.2626 9.80664 24.8361 10.238 24.2241 10.7979L23.3062 11.6621V11.7305H26.4165V13Z" fill="white"/>
</svg>
